<?xml version="1.0" encoding="iso-8859-1"?>
<!-- Uploaded to: SVG Repo, www.svgrepo.com, Generator: SVG Repo Mixer Tools -->
<svg version="1.1" id="Layer_1" xmlns="http://www.w3.org/2000/svg" xmlns:xlink="http://www.w3.org/1999/xlink" 
	 viewBox="0 0 460 460" xml:space="preserve">
<g>
	<circle style="fill:#9FC657;" cx="230" cy="230" r="230"/>
	<path style="fill:#7FB21E;" d="M449.205,160.206L340,51l-64.615,75.384L200,51l-17.043,183.217L70,366l79.507,79.507
		C174.562,454.869,201.68,460,230,460c127.026,0,230-102.975,230-230C460,205.666,456.209,182.22,449.205,160.206z"/>
	<polygon style="fill:#064855;" points="220,232.826 190,232.826 190,122.826 220,122.826 230,177.826 	"/>
	<polygon style="fill:#096C80;" points="240,232.826 220,232.826 220,122.826 240,122.826 250,177.667 	"/>
	<rect x="240" y="122.826" style="fill:#03242B;" width="30" height="110"/>
	<polygon style="fill:#0C8FAA;" points="190,112.826 190,132.826 230,132.826 240,122.826 230,112.826 	"/>
	<rect x="230" y="112.826" style="fill:#096C80;" width="40" height="20"/>
	<polygon style="fill:#0C8FAA;" points="190,222.826 190,242.826 230,242.826 240,232.826 230,222.826 	"/>
	<rect x="230" y="222.826" style="fill:#096C80;" width="40" height="20"/>
	<polygon style="fill:#096C80;" points="120,51 120,91 160,101 200,91 200,51 	"/>
	<polygon style="fill:#064855;" points="120,91 120,121 200,111 200,91 	"/>
	<polygon style="fill:#064855;" points="260,51 260,91 300,101 340,91 340,51 	"/>
	<polygon style="fill:#03242B;" points="260,91 260,111 340,121 340,91 	"/>
	<polygon style="fill:#096C80;" points="70,266 135,276 200,266 200,111 95,111 	"/>
	<polygon style="fill:#064855;" points="365,111 260,111 260,266 325,276 390,266 	"/>
	<polygon style="fill:#03242B;" points="260,266 260,346 325,356 390,346 390,266 	"/>
	<polygon style="fill:#096C80;" points="260,346 260,366 325,366 335,356 325,346 	"/>
	<rect x="325" y="346" style="fill:#064855;" width="65" height="20"/>
	<polygon style="fill:#064855;" points="70,266 70,346 135,356 200,346 200,266 	"/>
	<polygon style="fill:#0C8FAA;" points="70,346 70,366 135,366 145,356 135,346 	"/>
	<rect x="135" y="346" style="fill:#096C80;" width="65" height="20"/>
</g>
</svg>